<svg xmlns="http://www.w3.org/2000/svg" width="24" height="24" fill="currentColor" viewBox="0 0 16 16">
  <path d="M5.5 5.5A.5.5 0 0 1 6 6v6a.5.5 0 0 1-1 0V6a.5.5 0 0 1 .5-.5zm2.5 0A.5.5 0 0 1 8.5 6v6a.5.5 0 0 1-1 0V6a.5.5 0 0 1 .5-.5zm3 .5a.5.5 0 0 0-1 0v6a.5.5 0 0 0 1 0V6z"/>
  <path fill-rule="evenodd" d="M14.5 3a1 1 0 0 1-1 1H13v9a2 2 0 0 1-2 2H5a2 2 0 0 1-2-2V4h-.5a1 1 0 0 1 0-2H5V1a1 1 0 0 1 1-1h4a1 1 0 0 1 1 1v1h2.5a1 1 0 0 1 1 1zM6 1v1h4V1H6zm-2 3v9a1 1 0 0 0 1 1h6a1 1 0 0 0 1-1V4H4z"/>
</svg>